<svg xmlns="http://www.w3.org/2000/svg" width="430" height="54.624" viewBox="0 0 430 54.624"><g transform="translate(-41 -254)"><g transform="translate(41 254)"><path d="M53.894.718a27.083,27.083,0,0,1,19.22,7.652,26.375,26.375,0,0,1,5.787,8.4,25.1,25.1,0,0,1,2.071,10.362A26.166,26.166,0,0,1,78.9,37.488a27.256,27.256,0,0,1-5.787,8.4,25.594,25.594,0,0,1-8.6,5.579,26.473,26.473,0,0,1-10.618,2.072H33.665V.718Zm6.69,41.553a14.551,14.551,0,0,0,5.15-3.507,17.282,17.282,0,0,0,3.292-5.26,17,17,0,0,0,1.168-6.376,17.559,17.559,0,0,0-1.168-6.483,15.533,15.533,0,0,0-3.292-5.207,16.22,16.22,0,0,0-5.15-3.56,18.071,18.071,0,0,0-6.69-1.275H44.443v33h9.451A16.178,16.178,0,0,0,60.584,42.27Z" transform="translate(8.703 0.185)"/><path d="M132.276.718V53.482H121.5V.718Z" transform="translate(31.409 0.185)"/><path d="M178.3,33c-1.592,6.058-5.947,11.212-14.547,11.212-11.255,0-14.813-8.714-14.813-16.9s3.611-16.9,14.813-16.9c8.6,0,12.955,5.1,14.547,11.212h11.043C187.168,8.661,177.612,0,164.18,0c-15.291,0-26.44,11.212-26.44,27.312,0,16.047,11.1,27.312,26.44,27.312,13.432,0,22.988-8.608,25.165-21.573H178.3Z" transform="translate(35.608)"/><path d="M242.214.718V53.482H231.436V.718Z" transform="translate(59.83 0.185)"/><path d="M196.695.718V22.132h23.679V.718H231.2V53.482H220.427V31.59H196.695V53.482H185.917V.718Z" transform="translate(48.063 0.185)"/><path d="M16.14,0A16.153,16.153,0,1,0,32.28,16.153,16.14,16.14,0,0,0,16.14,0Zm0,22.742A6.642,6.642,0,1,1,22.777,16.1,6.711,6.711,0,0,1,16.14,22.742Z"/><path d="M114.278,53.482h11.415L107.748.718H91.183L73.025,53.482H84.44L88,42.642h22.724ZM91.076,33.4l8.336-25.24,8.283,25.24Z" transform="translate(18.878 0.185)"/><path d="M9.873,22.038A8.661,8.661,0,0,1,3.425,19.41,8.886,8.886,0,0,1,.848,12.937a8.935,8.935,0,0,1,9.176-9.1,8.919,8.919,0,0,1,3.846.742A10.993,10.993,0,0,1,16.837,6.7L14.524,9.367a8.8,8.8,0,0,0-2.124-1.5A5.628,5.628,0,0,0,10,7.406,4.721,4.721,0,0,0,6.341,9,5.646,5.646,0,0,0,4.9,12.937a5.658,5.658,0,0,0,1.446,3.922A4.7,4.7,0,0,0,10,18.468a5.507,5.507,0,0,0,2.439-.5,9.543,9.543,0,0,0,2.187-1.559l2.464,2.64a9.418,9.418,0,0,1-3.1,2.263A10.279,10.279,0,0,1,9.873,22.038ZM31.355,20a7.2,7.2,0,0,1-5.216,2.036,7.135,7.135,0,0,1-5.191-2.024,6.7,6.7,0,0,1-2.074-4.99,6.669,6.669,0,0,1,2.1-4.978A7.2,7.2,0,0,1,26.189,8.01a7.135,7.135,0,0,1,5.191,2.024,6.7,6.7,0,0,1,2.074,4.99A6.669,6.669,0,0,1,31.355,20Zm-5.166-1.257a3.239,3.239,0,0,0,2.539-1.068,3.833,3.833,0,0,0,.955-2.652A3.772,3.772,0,0,0,28.69,12.4,3.291,3.291,0,0,0,26.138,11.3,3.239,3.239,0,0,0,23.6,12.371a3.833,3.833,0,0,0-.955,2.652,3.772,3.772,0,0,0,.993,2.627A3.291,3.291,0,0,0,26.189,18.744Zm10.031,2.992V8.261h3.821v1.911A4.935,4.935,0,0,1,44.013,8.01a3.921,3.921,0,0,1,3.8,2.137A5.638,5.638,0,0,1,52.233,8.01a4.384,4.384,0,0,1,3.356,1.27,5.18,5.18,0,0,1,1.194,3.683v8.774H52.962V14.219q0-2.74-2.237-2.74a2.137,2.137,0,0,0-1.7.7,3,3,0,0,0-.616,2.036v7.517H44.591V14.219q0-2.74-2.237-2.74a2.137,2.137,0,0,0-1.7.7,3,3,0,0,0-.616,2.036v7.517Zm24.536,0V11.529H59.172V8.387h1.584V7.532a4.442,4.442,0,0,1,1.081-3.268,4.191,4.191,0,0,1,3.092-1.056,8.931,8.931,0,0,1,2.715.377V6.753a5.1,5.1,0,0,0-1.735-.327q-1.383,0-1.383,1.458v.528h3.092v3.117H64.577V21.736ZM81.282,20a7.685,7.685,0,0,1-10.408.013,6.7,6.7,0,0,1-2.074-4.99,6.669,6.669,0,0,1,2.1-4.978,7.685,7.685,0,0,1,10.408-.013,6.7,6.7,0,0,1,2.074,4.99A6.669,6.669,0,0,1,81.282,20Zm-5.166-1.257a3.239,3.239,0,0,0,2.539-1.068,3.833,3.833,0,0,0,.955-2.652,3.772,3.772,0,0,0-.993-2.627A3.291,3.291,0,0,0,76.066,11.3a3.239,3.239,0,0,0-2.539,1.068,3.833,3.833,0,0,0-.955,2.652,3.772,3.772,0,0,0,.993,2.627A3.291,3.291,0,0,0,76.116,18.744Zm10.031,2.992V8.261h3.821v2.715a4.229,4.229,0,0,1,4.3-2.966v4h-.2A3.854,3.854,0,0,0,91.036,13.2a5.187,5.187,0,0,0-1.068,3.557v4.978Zm15.059.226a4.191,4.191,0,0,1-2.9-.918,4.058,4.058,0,0,1-1.018-3.13V11.529H95.674V8.261h1.609V4.817H101.1V8.261h3.168v3.268H101.1v5.757q0,1.307,1.232,1.307a3.892,3.892,0,0,0,1.885-.478v3.067A5.778,5.778,0,0,1,101.205,21.962Z" transform="translate(325.728 -1.31)"/></g></g></svg>